 <svg
          width="460"
          height="224"
          viewBox="0 0 460 224"
          fill="none"
          xmlns="http://www.w3.org/2000/svg"
        >
          <g clip-path="url(#clip0)">
            <path
              d="M414.934 92.4066H145.049C143.903 92.4066 142.804 92.9176 141.994 93.8272C141.184 94.7368 140.729 95.9705 140.729 97.2568C140.729 98.5432 141.184 99.7769 141.994 100.686C142.804 101.596 143.903 102.107 145.049 102.107H152.694V218.139C152.694 219.425 153.149 220.659 153.959 221.569C154.77 222.478 155.869 222.989 157.015 222.989C158.161 222.989 159.26 222.478 160.07 221.569C160.88 220.659 161.335 219.425 161.335 218.139L161.401 102.107H378.011L397.983 218.139C397.983 219.425 398.438 220.659 399.248 221.569C400.059 222.478 401.158 222.989 402.304 222.989C403.45 222.989 404.549 222.478 405.359 221.569C406.169 220.659 406.625 219.425 406.625 218.139L407.882 102.107H414.934C416.08 102.107 417.179 101.596 417.989 100.686C418.799 99.7769 419.255 98.5432 419.255 97.2568C419.255 95.9705 418.799 94.7368 417.989 93.8272C417.179 92.9176 416.08 92.4066 414.934 92.4066V92.4066Z"
              fill="#CCCCCC"
            />
            <path
              d="M191.83 70.7947V91.3341H145.988C144.787 91.381 143.589 91.1618 142.463 90.6891C141.337 90.2163 140.305 89.4992 139.426 88.5788C138.547 87.6583 137.838 86.5525 137.339 85.3245C136.841 84.0965 136.563 82.7703 136.521 81.4217C136.479 80.073 136.675 78.7284 137.096 77.4644C137.517 76.2005 138.156 75.0421 138.976 74.0553C139.796 73.0685 140.781 72.2726 141.875 71.7132C142.969 71.1537 144.15 70.8416 145.352 70.7947C145.564 70.7864 145.776 70.7864 145.988 70.7947L191.83 70.7947Z"
              fill="#F2F2F2"
            />
            <path
              d="M192.956 91.1761C192.956 91.3856 192.882 91.5865 192.75 91.7346C192.618 91.8827 192.439 91.966 192.252 91.966H145.172C142.616 91.964 140.165 90.8229 138.359 88.7935C136.552 86.7641 135.537 84.0124 135.537 81.1434C135.537 78.2744 136.552 75.5227 138.359 73.4933C140.165 71.4639 142.616 70.3227 145.172 70.3207H192.252C192.345 70.3205 192.437 70.3407 192.522 70.3803C192.608 70.4199 192.686 70.478 192.751 70.5514C192.817 70.6248 192.869 70.712 192.904 70.8079C192.94 70.9039 192.958 71.0068 192.958 71.1107C192.958 71.2146 192.94 71.3175 192.904 71.4135C192.869 71.5095 192.817 71.5967 192.751 71.67C192.686 71.7434 192.608 71.8016 192.522 71.8412C192.437 71.8807 192.345 71.901 192.252 71.9007H145.172C142.99 71.9044 140.899 72.8798 139.358 74.6128C137.816 76.3457 136.95 78.6945 136.95 81.1434C136.95 83.5923 137.816 85.9411 139.358 87.674C140.899 89.407 142.99 90.3824 145.172 90.3861H192.252C192.439 90.3862 192.618 90.4694 192.75 90.6176C192.882 90.7657 192.956 90.9666 192.956 91.1761V91.1761Z"
              fill="#6C63FF"
            />
            <path
              d="M191.83 75.5346H142.568C142.531 75.5348 142.495 75.5185 142.468 75.4891C142.442 75.4598 142.427 75.4199 142.426 75.3781C142.426 75.3363 142.44 75.296 142.466 75.2661C142.492 75.2363 142.528 75.2192 142.565 75.2186H191.83C191.867 75.219 191.903 75.2359 191.929 75.2655C191.955 75.295 191.969 75.335 191.969 75.3766C191.969 75.4182 191.955 75.4582 191.929 75.4878C191.903 75.5174 191.867 75.5342 191.83 75.5346Z"
              fill="#CCCCCC"
            />
            <path
              d="M191.83 79.3265H142.568C142.531 79.3267 142.495 79.3104 142.468 79.281C142.442 79.2517 142.427 79.2117 142.426 79.1699C142.426 79.1281 142.44 79.0879 142.466 79.058C142.492 79.0281 142.528 79.011 142.565 79.0105H191.83C191.867 79.0109 191.903 79.0277 191.929 79.0573C191.955 79.0869 191.969 79.1269 191.969 79.1685C191.969 79.2101 191.955 79.2501 191.929 79.2797C191.903 79.3092 191.867 79.3261 191.83 79.3265Z"
              fill="#CCCCCC"
            />
            <path
              d="M191.83 83.1183H142.568C142.531 83.1186 142.495 83.1022 142.468 83.0729C142.442 83.0435 142.427 83.0036 142.426 82.9618C142.426 82.92 142.44 82.8798 142.466 82.8499C142.492 82.82 142.528 82.8029 142.565 82.8024H191.83C191.867 82.8028 191.903 82.8196 191.929 82.8492C191.955 82.8788 191.969 82.9187 191.969 82.9604C191.969 83.002 191.955 83.0419 191.929 83.0715C191.903 83.1011 191.867 83.1179 191.83 83.1183Z"
              fill="#CCCCCC"
            />
            <path
              d="M191.83 86.9102H142.568C142.531 86.9104 142.495 86.8941 142.468 86.8647C142.442 86.8354 142.427 86.7954 142.426 86.7537C142.426 86.7119 142.44 86.6716 142.466 86.6417C142.492 86.6118 142.528 86.5948 142.565 86.5942H191.83C191.867 86.5946 191.903 86.6114 191.929 86.641C191.955 86.6706 191.969 86.7106 191.969 86.7522C191.969 86.7938 191.955 86.8338 191.929 86.8634C191.903 86.8929 191.867 86.9098 191.83 86.9102Z"
              fill="#CCCCCC"
            />
            <path
              d="M183.188 49.1554V69.6947H137.347C134.92 69.7894 132.56 68.7983 130.784 66.9394C129.009 65.0805 127.964 62.506 127.88 59.7823C127.795 57.0586 128.678 54.4088 130.334 52.4159C131.99 50.423 134.284 49.2501 136.71 49.1554C136.922 49.1471 137.134 49.1471 137.347 49.1554H183.188Z"
              fill="#F2F2F2"
            />
            <path
              d="M184.314 69.5367C184.314 69.7462 184.24 69.947 184.108 70.0952C183.976 70.2433 183.797 70.3266 183.611 70.3267H136.53C133.973 70.3267 131.521 69.1864 129.713 67.1568C127.904 65.1271 126.889 62.3743 126.889 59.504C126.889 56.6337 127.904 53.8809 129.713 51.8512C131.521 49.8216 133.973 48.6814 136.53 48.6814H183.611C183.703 48.6814 183.795 48.7018 183.88 48.7415C183.965 48.7812 184.043 48.8394 184.108 48.9127C184.174 48.9861 184.226 49.0732 184.261 49.169C184.296 49.2649 184.314 49.3676 184.314 49.4713C184.314 49.5751 184.296 49.6778 184.261 49.7736C184.226 49.8695 184.174 49.9566 184.108 50.0299C184.043 50.1033 183.965 50.1615 183.88 50.2012C183.795 50.2409 183.703 50.2613 183.611 50.2613H136.53C134.346 50.2613 132.252 51.2351 130.708 52.9684C129.164 54.7018 128.296 57.0527 128.296 59.504C128.296 61.9553 129.164 64.3063 130.708 66.0396C132.252 67.7729 134.346 68.7467 136.53 68.7467H183.611C183.797 68.7468 183.976 68.8301 184.108 68.9782C184.24 69.1263 184.314 69.3272 184.314 69.5367Z"
              fill="#3F3D56"
            />
            <path
              d="M183.189 53.8952H133.926C133.889 53.8954 133.853 53.879 133.827 53.8497C133.8 53.8204 133.785 53.7804 133.785 53.7386C133.784 53.6968 133.799 53.6566 133.825 53.6267C133.851 53.5968 133.886 53.5797 133.924 53.5792H183.189C183.226 53.5796 183.261 53.5964 183.287 53.626C183.313 53.6556 183.328 53.6955 183.328 53.7372C183.328 53.7788 183.313 53.8188 183.287 53.8483C183.261 53.8779 183.226 53.8947 183.189 53.8952V53.8952Z"
              fill="#CCCCCC"
            />
            <path
              d="M183.189 57.6871H133.926C133.889 57.6873 133.853 57.671 133.827 57.6416C133.8 57.6123 133.785 57.5723 133.785 57.5306C133.784 57.4888 133.799 57.4485 133.825 57.4186C133.851 57.3887 133.886 57.3716 133.924 57.3711H183.189C183.226 57.3715 183.261 57.3883 183.287 57.4179C183.313 57.4475 183.328 57.4875 183.328 57.5291C183.328 57.5707 183.313 57.6107 183.287 57.6403C183.261 57.6698 183.226 57.6867 183.189 57.6871Z"
              fill="#CCCCCC"
            />
            <path
              d="M183.189 61.4789H133.926C133.889 61.4792 133.853 61.4628 133.827 61.4335C133.8 61.4041 133.785 61.3642 133.785 61.3224C133.784 61.2806 133.799 61.2404 133.825 61.2105C133.851 61.1806 133.886 61.1635 133.924 61.163H183.189C183.226 61.1634 183.261 61.1802 183.287 61.2098C183.313 61.2394 183.328 61.2793 183.328 61.321C183.328 61.3626 183.313 61.4025 183.287 61.4321C183.261 61.4617 183.226 61.4785 183.189 61.4789Z"
              fill="#CCCCCC"
            />
            <path
              d="M183.189 65.2708H133.926C133.889 65.271 133.853 65.2547 133.827 65.2253C133.8 65.196 133.785 65.156 133.785 65.1142C133.784 65.0724 133.799 65.0322 133.825 65.0023C133.851 64.9724 133.886 64.9554 133.924 64.9548H183.189C183.226 64.9552 183.261 64.972 183.287 65.0016C183.313 65.0312 183.328 65.0712 183.328 65.1128C183.328 65.1544 183.313 65.1944 183.287 65.2239C183.261 65.2535 183.226 65.2704 183.189 65.2708V65.2708Z"
              fill="#CCCCCC"
            />
            <path
              d="M236.517 165.087V147.178C236.517 146.386 236.237 145.627 235.738 145.068C235.239 144.508 234.563 144.193 233.858 144.193H173.366C172.661 144.193 171.985 144.508 171.486 145.068C170.988 145.627 170.708 146.386 170.708 147.178V165.087H236.517Z"
              fill="#CCCCCC"
            />
            <path
              d="M236.517 171.802H170.708V194.934H236.517V171.802Z"
              fill="#CCCCCC"
            />
            <path
              d="M170.708 201.65V219.558C170.708 220.35 170.988 221.109 171.486 221.669C171.985 222.228 172.661 222.543 173.366 222.543H233.858C234.563 222.543 235.239 222.228 235.738 221.669C236.237 221.109 236.517 220.35 236.517 219.558V201.65H170.708Z"
              fill="#CCCCCC"
            />
            <path
              d="M203.279 157.625C204.381 157.625 205.274 156.622 205.274 155.386C205.274 154.15 204.381 153.148 203.279 153.148C202.178 153.148 201.285 154.15 201.285 155.386C201.285 156.622 202.178 157.625 203.279 157.625Z"
              fill="white"
            />
            <path
              d="M203.279 187.472C204.381 187.472 205.274 186.47 205.274 185.234C205.274 183.997 204.381 182.995 203.279 182.995C202.178 182.995 201.285 183.997 201.285 185.234C201.285 186.47 202.178 187.472 203.279 187.472Z"
              fill="white"
            />
            <path
              d="M203.386 216.688C204.488 216.688 205.381 215.685 205.381 214.449C205.381 213.213 204.488 212.21 203.386 212.21C202.285 212.21 201.392 213.213 201.392 214.449C201.392 215.685 202.285 216.688 203.386 216.688Z"
              fill="white"
            />
            <path
              d="M229.055 123.774V144.313H183.213C180.788 144.406 178.429 143.414 176.655 141.556C174.881 139.697 173.837 137.123 173.753 134.401C173.668 131.679 174.55 129.03 176.205 127.037C177.859 125.044 180.151 123.871 182.576 123.774C182.789 123.766 183.001 123.766 183.213 123.774H229.055Z"
              fill="#F2F2F2"
            />
            <path
              d="M230.182 144.155C230.182 144.365 230.107 144.566 229.975 144.714C229.843 144.862 229.664 144.945 229.478 144.945H182.397C179.841 144.946 177.389 143.807 175.58 141.779C173.772 139.75 172.755 136.999 172.753 134.129C172.752 131.259 173.766 128.507 175.572 126.476C177.378 124.445 179.829 123.303 182.386 123.3H229.478C229.57 123.3 229.662 123.32 229.748 123.36C229.833 123.399 229.911 123.457 229.977 123.531C230.042 123.604 230.094 123.691 230.13 123.787C230.165 123.883 230.183 123.986 230.183 124.09C230.183 124.194 230.165 124.297 230.13 124.393C230.094 124.489 230.042 124.576 229.977 124.649C229.911 124.723 229.833 124.781 229.748 124.82C229.662 124.86 229.57 124.88 229.478 124.88H182.397C180.215 124.883 178.124 125.858 176.582 127.591C175.04 129.324 174.174 131.673 174.174 134.123C174.174 136.572 175.04 138.921 176.582 140.654C178.124 142.387 180.215 143.362 182.397 143.365H229.478C229.664 143.365 229.843 143.449 229.975 143.597C230.107 143.745 230.182 143.946 230.182 144.155V144.155Z"
              fill="#3F3D56"
            />
            <path
              d="M229.055 128.514H179.793C179.756 128.514 179.72 128.498 179.693 128.468C179.667 128.439 179.652 128.399 179.651 128.357C179.651 128.315 179.665 128.275 179.691 128.245C179.718 128.215 179.753 128.198 179.79 128.198H229.055C229.092 128.198 229.128 128.215 229.154 128.245C229.18 128.274 229.195 128.314 229.195 128.356C229.195 128.397 229.18 128.437 229.154 128.467C229.128 128.497 229.092 128.513 229.055 128.514H229.055Z"
              fill="#CCCCCC"
            />
            <path
              d="M229.055 132.306H179.793C179.756 132.306 179.72 132.29 179.693 132.26C179.667 132.231 179.652 132.191 179.651 132.149C179.651 132.107 179.665 132.067 179.691 132.037C179.718 132.007 179.753 131.99 179.79 131.99H229.055C229.092 131.99 229.128 132.007 229.154 132.037C229.18 132.066 229.195 132.106 229.195 132.148C229.195 132.189 229.18 132.229 229.154 132.259C229.128 132.289 229.092 132.305 229.055 132.306H229.055Z"
              fill="#CCCCCC"
            />
            <path
              d="M229.055 136.098H179.793C179.756 136.098 179.72 136.081 179.693 136.052C179.667 136.023 179.652 135.983 179.651 135.941C179.651 135.899 179.665 135.859 179.691 135.829C179.718 135.799 179.753 135.782 179.79 135.782H229.055C229.092 135.782 229.128 135.799 229.154 135.828C229.18 135.858 229.195 135.898 229.195 135.94C229.195 135.981 229.18 136.021 229.154 136.051C229.128 136.08 229.092 136.097 229.055 136.098H229.055Z"
              fill="#CCCCCC"
            />
            <path
              d="M229.055 139.889H179.793C179.756 139.89 179.72 139.873 179.693 139.844C179.667 139.815 179.652 139.775 179.651 139.733C179.651 139.691 179.665 139.651 179.691 139.621C179.718 139.591 179.753 139.574 179.79 139.573H229.055C229.092 139.574 229.128 139.591 229.154 139.62C229.18 139.65 229.195 139.69 229.195 139.731C229.195 139.773 229.18 139.813 229.154 139.843C229.128 139.872 229.092 139.889 229.055 139.889H229.055Z"
              fill="#CCCCCC"
            />
            <path
              d="M175.216 42.3035H154.33C154.132 42.3033 153.936 42.3544 153.759 42.4527L148.487 45.4151C148.314 45.4978 148.166 45.6361 148.062 45.8125C147.958 45.989 147.902 46.1959 147.902 46.4075C147.902 46.6191 147.958 46.826 148.062 47.0024C148.166 47.1789 148.314 47.3171 148.487 47.3999L153.759 50.3622C153.936 50.4606 154.132 50.5117 154.33 50.5115H175.216C175.504 50.5302 175.787 50.4208 176.003 50.2072C176.22 49.9935 176.353 49.6926 176.373 49.3698V43.4451C176.353 43.1223 176.22 42.8215 176.003 42.6078C175.787 42.3941 175.504 42.2848 175.216 42.3035V42.3035Z"
              fill="#3F3D56"
            />
            <path
              d="M176.374 43.4452V49.3698C176.353 49.6927 176.22 49.9935 176.004 50.2072C175.787 50.4209 175.505 50.5302 175.217 50.5115H171.056V42.3035H175.217C175.505 42.2848 175.787 42.3941 176.004 42.6078C176.22 42.8215 176.353 43.1223 176.374 43.4452V43.4452Z"
              fill="#6C63FF"
            />
            <path
              d="M49.9978 158.396C52.6872 159.457 55.5748 159.723 58.3822 159.167C61.1897 158.612 63.8225 157.255 66.027 155.226C71.6412 149.936 73.4015 141.222 74.8337 133.153C76.2458 125.197 77.6579 117.241 79.07 109.286L70.2009 116.141C63.8227 121.071 57.3009 126.158 52.8847 133.299C48.4685 140.44 46.5408 150.187 50.0891 157.914"
              fill="#E6E6E6"
            />
            <path
              d="M50.7562 187.292C49.8585 179.952 48.9355 172.518 49.5652 165.099C50.1244 158.511 51.915 152.076 55.5605 146.799C57.4956 144.004 59.8501 141.609 62.5184 139.722C63.2142 139.229 63.8546 140.467 63.1618 140.957C58.545 144.233 54.974 149.069 52.9638 154.77C50.7436 161.109 50.387 168.019 50.7696 174.753C51.001 178.825 51.4914 182.871 51.9855 186.911C52.0245 187.094 52.0002 187.286 51.9175 187.45C51.8349 187.613 51.7001 187.735 51.5403 187.791C51.3773 187.841 51.2036 187.816 51.0568 187.722C50.9101 187.629 50.802 187.474 50.7562 187.292L50.7562 187.292Z"
              fill="#F2F2F2"
            />
            <path
              d="M59.4023 174.304C60.5558 176.271 62.1412 177.873 64.006 178.953C65.8707 180.033 67.9519 180.556 70.049 180.472C75.4386 180.185 79.9318 175.962 83.9764 171.953L95.9398 160.096L88.0221 159.671C82.3281 159.365 76.4872 159.08 71.0638 161.051C65.6405 163.022 60.6388 167.766 59.6471 174.067"
              fill="#E6E6E6"
            />
            <path
              d="M48.2192 191.511C52.5398 182.929 57.5514 173.391 66.5062 170.343C68.9961 169.498 71.6069 169.196 74.198 169.451C75.0147 169.531 74.8108 170.944 73.9956 170.865C69.6523 170.46 65.3174 171.747 61.7207 174.51C58.2596 177.155 55.5648 180.831 53.2839 184.73C51.8868 187.118 50.6354 189.608 49.3837 192.094C48.9837 192.888 47.8145 192.315 48.2192 191.511L48.2192 191.511Z"
              fill="#F2F2F2"
            />
            <path
              d="M41.2963 200.544C41.4419 198.65 42.0476 196.838 43.0473 195.304C44.047 193.77 45.4025 192.574 46.9662 191.845V186.884H54.3791V192.001C55.8658 192.766 57.1453 193.959 58.0871 195.46C59.0289 196.961 59.5993 198.715 59.7402 200.544L61.4833 223.289H39.5532L41.2963 200.544Z"
              fill="#F2F2F2"
            />
            <path
              d="M293.398 91.9403L291.193 90.898L289.68 78.4886H269.535L267.895 90.8473L265.922 91.9547C265.828 92.0076 265.752 92.0949 265.707 92.2022C265.663 92.3095 265.651 92.4306 265.676 92.5459C265.7 92.6612 265.758 92.7639 265.841 92.8374C265.924 92.9109 266.026 92.9509 266.132 92.9509H293.216C293.325 92.9509 293.429 92.9089 293.513 92.832C293.597 92.7552 293.654 92.6481 293.676 92.5291C293.697 92.4101 293.681 92.2865 293.631 92.1791C293.58 92.0718 293.498 91.9874 293.398 91.9403V91.9403Z"
              fill="#E6E6E6"
            />
            <path
              d="M329.198 80.1397H230.238C229.719 80.1384 229.221 79.9059 228.854 79.4934C228.488 79.0808 228.282 78.5217 228.282 77.9389V62.2744H331.154V77.9389C331.154 78.5217 330.948 79.0808 330.581 79.4933C330.215 79.9059 329.717 80.1384 329.198 80.1397V80.1397Z"
              fill="#CCCCCC"
            />
            <path
              d="M331.258 69.6778H228.191V2.65301C228.192 1.94962 228.441 1.27528 228.884 0.777915C229.328 0.280553 229.928 0.000787046 230.555 0H328.894C329.521 0.000787033 330.121 0.280554 330.565 0.777915C331.008 1.27528 331.257 1.94962 331.258 2.65301L331.258 69.6778Z"
              fill="#3F3D56"
            />
            <path
              d="M325.102 64.8132H234.347C233.864 64.8126 233.401 64.5969 233.06 64.2135C232.718 63.83 232.526 63.3101 232.525 62.7679V6.90996C232.526 6.36768 232.718 5.84778 233.06 5.46432C233.401 5.08087 233.864 4.86517 234.347 4.86455H325.102C325.585 4.86517 326.048 5.08087 326.39 5.46432C326.732 5.84778 326.924 6.36768 326.924 6.90996V62.7679C326.924 63.3101 326.732 63.83 326.39 64.2135C326.048 64.5969 325.585 64.8126 325.102 64.8132V64.8132Z"
              fill="white"
            />
            <path
              d="M378.076 137.816H354.188C354.188 138.965 328.075 139.897 328.075 139.897C327.499 140.384 326.974 140.943 326.51 141.562C325.116 143.429 324.354 145.788 324.358 148.223V149.888C324.359 152.648 325.336 155.295 327.075 157.246C328.813 159.198 331.171 160.295 333.63 160.296H378.076C380.534 160.293 382.891 159.196 384.63 157.245C386.368 155.293 387.345 152.648 387.348 149.888V148.223C387.344 145.464 386.366 142.819 384.628 140.868C382.89 138.917 380.534 137.819 378.076 137.816V137.816Z"
              fill="#E4E4E4"
            />
            <path
              d="M360.705 159.882H351.062V222.357H360.705V159.882Z"
              fill="#E4E4E4"
            />
            <path
              d="M323.619 221.977C323.619 223.146 338.231 222.429 356.255 222.429C374.279 222.429 388.89 223.146 388.89 221.977C388.89 220.807 374.279 211.533 356.255 211.533C338.231 211.533 323.619 220.807 323.619 221.977Z"
              fill="#E4E4E4"
            />
            <path
              d="M459.335 224H0.664741C0.488441 224 0.319364 223.921 0.194701 223.781C0.0700382 223.641 0 223.452 0 223.254C0 223.056 0.0700382 222.866 0.194701 222.726C0.319364 222.586 0.488441 222.508 0.664741 222.508H459.335C459.512 222.508 459.681 222.586 459.805 222.726C459.93 222.866 460 223.056 460 223.254C460 223.452 459.93 223.641 459.805 223.781C459.681 223.921 459.512 224 459.335 224Z"
              fill="#CCCCCC"
            />
          </g>
          <defs>
            <clipPath id="clip0">
              <rect width="460" height="224" fill="white" />
            </clipPath>
          </defs>
        </svg>