<svg
                  width="100"
                  height="15"
                  viewBox="0 0 100 15"
                  fill="none"
                  xmlns="http://www.w3.org/2000/svg"
                >
                  <g id="5-star-rating">
                    <path
                      id="Star 1"
                      d="M7.30996 0L8.95115 5.18237H14.2622L9.96546 8.38525L11.6067 13.5676L7.30996 10.3647L3.01327 13.5676L4.65446 8.38525L0.357775 5.18237H5.66877L7.30996 0Z"
                      fill="#FAC528"
                    />
                    <path
                      id="Star 3"
                      d="M71.3436 0L73.0504 5.18237H78.5738L74.1053 8.38525L75.8121 13.5676L71.3436 10.3647L66.875 13.5676L68.5819 8.38525L64.1133 5.18237H69.6367L71.3436 0Z"
                      fill="#FAC528"
                    />
                    <path
                      id="Star 4"
                      d="M49.9994 0L51.6406 5.18237H56.9516L52.6549 8.38525L54.2961 13.5676L49.9994 10.3647L45.7027 13.5676L47.3439 8.38525L43.0472 5.18237H48.3582L49.9994 0Z"
                      fill="#FAC528"
                    />
                    <path
                      id="Star 5"
                      d="M28.6541 0L30.361 5.18237H35.8844L31.4158 8.38525L33.1227 13.5676L28.6541 10.3647L24.1856 13.5676L25.8924 8.38525L21.4238 5.18237H26.9473L28.6541 0Z"
                      fill="#FAC528"
                    />
                    <path
                      id="Star 6"
                      d="M92.6898 0L94.331 5.18237H99.642L95.3453 8.38525L96.9865 13.5676L92.6898 10.3647L88.3932 13.5676L90.0343 8.38525L85.7377 5.18237H91.0487L92.6898 0Z"
                      fill="#FAC528"
                    />
                  </g>
                </svg>