 <svg
                  width="100"
                  height="15"
                  viewBox="0 0 100 15"
                  fill="none"
                  xmlns="http://www.w3.org/2000/svg"
                >
                  <g id="4-star-rating">
                    <path
                      id="Star 1"
                      d="M7.30994 0L8.95113 5.18237H14.2621L9.96543 8.38525L11.6066 13.5676L7.30994 10.3647L3.01327 13.5676L4.65445 8.38525L0.357774 5.18237H5.66876L7.30994 0Z"
                      fill="#FAC528"
                    />
                    <path
                      id="Star 3"
                      d="M71.345 0L73.0518 5.18237H78.5753L74.1067 8.38525L75.8136 13.5676L71.345 10.3647L66.8765 13.5676L68.5833 8.38525L64.1148 5.18237H69.6382L71.345 0Z"
                      fill="#FAC528"
                    />
                    <path
                      id="Star 4"
                      d="M49.9999 0L51.6411 5.18237H56.9521L52.6554 8.38525L54.2966 13.5676L49.9999 10.3647L45.7032 13.5676L47.3444 8.38525L43.0477 5.18237H48.3587L49.9999 0Z"
                      fill="#FAC528"
                    />
                    <path
                      id="Star 5"
                      d="M28.6551 0L30.3619 5.18237H35.8853L31.4168 8.38525L33.1236 13.5676L28.6551 10.3647L24.1865 13.5676L25.8934 8.38525L21.4248 5.18237H26.9482L28.6551 0Z"
                      fill="#FAC528"
                    />
                    <path
                      id="Star 6"
                      d="M92.6898 0L94.331 5.18237H99.642L95.3453 8.38525L96.9865 13.5676L92.6898 10.3647L88.3931 13.5676L90.0343 8.38525L85.7377 5.18237H91.0486L92.6898 0Z"
                      fill="white"
                    />
                  </g>
                </svg>